<mxfile host="app.diagrams.net" modified="2024-03-26T21:42:56.363Z" agent="Mozilla/5.0 (Windows NT 10.0; Win64; x64) AppleWebKit/537.36 (KHTML, like Gecko) Chrome/123.0.0.0 Safari/537.36" etag="D65k78cDEB2VJmZivai5" version="24.1.0" type="device">
  <diagram id="eQsN8v14xfLhEiNO-Wk4" name="Page-1">
    <mxGraphModel dx="1050" dy="565" grid="0" gridSize="10" guides="1" tooltips="1" connect="1" arrows="1" fold="1" page="1" pageScale="1" pageWidth="1100" pageHeight="850" math="0" shadow="0">
      <root>
        <mxCell id="0" />
        <mxCell id="1" parent="0" />
        <mxCell id="n_0-4SOuCaoWq6f39xD4-1" value="System" style="swimlane;whiteSpace=wrap;html=1;" parent="1" vertex="1">
          <mxGeometry x="90" y="20" width="200" height="810" as="geometry" />
        </mxCell>
        <mxCell id="n_0-4SOuCaoWq6f39xD4-6" style="edgeStyle=orthogonalEdgeStyle;rounded=0;orthogonalLoop=1;jettySize=auto;html=1;exitX=0.5;exitY=1;exitDx=0;exitDy=0;" parent="n_0-4SOuCaoWq6f39xD4-1" source="n_0-4SOuCaoWq6f39xD4-4" target="n_0-4SOuCaoWq6f39xD4-5" edge="1">
          <mxGeometry relative="1" as="geometry" />
        </mxCell>
        <mxCell id="n_0-4SOuCaoWq6f39xD4-4" value="&lt;b&gt;Start&lt;/b&gt;" style="ellipse;whiteSpace=wrap;html=1;fillColor=#fff2cc;strokeColor=#d6b656;" parent="n_0-4SOuCaoWq6f39xD4-1" vertex="1">
          <mxGeometry x="50" y="30" width="90" height="40" as="geometry" />
        </mxCell>
        <mxCell id="n_0-4SOuCaoWq6f39xD4-88" style="edgeStyle=orthogonalEdgeStyle;rounded=0;orthogonalLoop=1;jettySize=auto;html=1;exitX=0;exitY=0.5;exitDx=0;exitDy=0;entryX=0;entryY=0.5;entryDx=0;entryDy=0;fillColor=#f8cecc;strokeColor=#b85450;" parent="n_0-4SOuCaoWq6f39xD4-1" source="n_0-4SOuCaoWq6f39xD4-5" target="n_0-4SOuCaoWq6f39xD4-85" edge="1">
          <mxGeometry relative="1" as="geometry">
            <Array as="points">
              <mxPoint x="20" y="130" />
              <mxPoint x="20" y="495" />
            </Array>
          </mxGeometry>
        </mxCell>
        <mxCell id="n_0-4SOuCaoWq6f39xD4-91" value="&lt;b&gt;YES&lt;/b&gt;" style="edgeLabel;html=1;align=center;verticalAlign=middle;resizable=0;points=[];" parent="n_0-4SOuCaoWq6f39xD4-88" vertex="1" connectable="0">
          <mxGeometry x="-0.8846" y="1" relative="1" as="geometry">
            <mxPoint as="offset" />
          </mxGeometry>
        </mxCell>
        <mxCell id="n_0-4SOuCaoWq6f39xD4-5" value="&lt;b&gt;Have an account?&lt;/b&gt;" style="rhombus;whiteSpace=wrap;html=1;fillColor=#76608a;strokeColor=#432D57;fontColor=#ffffff;" parent="n_0-4SOuCaoWq6f39xD4-1" vertex="1">
          <mxGeometry x="50" y="90" width="90" height="80" as="geometry" />
        </mxCell>
        <mxCell id="n_0-4SOuCaoWq6f39xD4-11" value="&lt;b&gt;Is Admin&lt;/b&gt;&lt;div&gt;&lt;b&gt;?&lt;/b&gt;&lt;/div&gt;" style="rhombus;whiteSpace=wrap;html=1;fillColor=#76608a;strokeColor=#432D57;fontColor=#ffffff;" parent="n_0-4SOuCaoWq6f39xD4-1" vertex="1">
          <mxGeometry x="50" y="180" width="90" height="80" as="geometry" />
        </mxCell>
        <mxCell id="n_0-4SOuCaoWq6f39xD4-20" value="&lt;b&gt;YES&lt;/b&gt;&lt;div&gt;&lt;br&gt;&lt;/div&gt;" style="text;html=1;align=center;verticalAlign=middle;whiteSpace=wrap;rounded=0;" parent="n_0-4SOuCaoWq6f39xD4-1" vertex="1">
          <mxGeometry x="130" y="200" width="60" height="30" as="geometry" />
        </mxCell>
        <mxCell id="n_0-4SOuCaoWq6f39xD4-22" value="&lt;b&gt;Correct&lt;/b&gt;&lt;div&gt;&lt;b&gt;?&lt;/b&gt;&lt;/div&gt;" style="rhombus;whiteSpace=wrap;html=1;fillColor=#76608a;strokeColor=#432D57;fontColor=#ffffff;" parent="n_0-4SOuCaoWq6f39xD4-1" vertex="1">
          <mxGeometry x="50" y="280" width="90" height="80" as="geometry" />
        </mxCell>
        <mxCell id="n_0-4SOuCaoWq6f39xD4-142" style="edgeStyle=orthogonalEdgeStyle;rounded=0;orthogonalLoop=1;jettySize=auto;html=1;exitX=1;exitY=0;exitDx=0;exitDy=0;entryX=0;entryY=0.5;entryDx=0;entryDy=0;" parent="n_0-4SOuCaoWq6f39xD4-1" source="n_0-4SOuCaoWq6f39xD4-35" target="n_0-4SOuCaoWq6f39xD4-137" edge="1">
          <mxGeometry relative="1" as="geometry">
            <Array as="points">
              <mxPoint x="10" y="317" />
              <mxPoint x="10" y="765" />
            </Array>
          </mxGeometry>
        </mxCell>
        <mxCell id="n_0-4SOuCaoWq6f39xD4-35" value="" style="ellipse;whiteSpace=wrap;html=1;aspect=fixed;fillColor=#f8cecc;strokeColor=#b85450;" parent="n_0-4SOuCaoWq6f39xD4-1" vertex="1">
          <mxGeometry x="20" y="315" width="10" height="10" as="geometry" />
        </mxCell>
        <mxCell id="n_0-4SOuCaoWq6f39xD4-31" style="edgeStyle=orthogonalEdgeStyle;rounded=0;orthogonalLoop=1;jettySize=auto;html=1;exitX=0;exitY=0.5;exitDx=0;exitDy=0;entryX=1;entryY=0.5;entryDx=0;entryDy=0;" parent="n_0-4SOuCaoWq6f39xD4-1" source="n_0-4SOuCaoWq6f39xD4-22" target="n_0-4SOuCaoWq6f39xD4-35" edge="1">
          <mxGeometry relative="1" as="geometry">
            <mxPoint x="40" y="320" as="targetPoint" />
          </mxGeometry>
        </mxCell>
        <mxCell id="n_0-4SOuCaoWq6f39xD4-72" style="edgeStyle=orthogonalEdgeStyle;rounded=0;orthogonalLoop=1;jettySize=auto;html=1;exitX=0;exitY=0.5;exitDx=0;exitDy=0;entryX=0.5;entryY=1;entryDx=0;entryDy=0;" parent="n_0-4SOuCaoWq6f39xD4-1" source="n_0-4SOuCaoWq6f39xD4-65" target="n_0-4SOuCaoWq6f39xD4-35" edge="1">
          <mxGeometry relative="1" as="geometry" />
        </mxCell>
        <mxCell id="n_0-4SOuCaoWq6f39xD4-84" style="edgeStyle=orthogonalEdgeStyle;rounded=0;orthogonalLoop=1;jettySize=auto;html=1;exitX=0.5;exitY=1;exitDx=0;exitDy=0;" parent="n_0-4SOuCaoWq6f39xD4-1" source="n_0-4SOuCaoWq6f39xD4-85" edge="1">
          <mxGeometry relative="1" as="geometry">
            <mxPoint x="85" y="490" as="targetPoint" />
          </mxGeometry>
        </mxCell>
        <mxCell id="n_0-4SOuCaoWq6f39xD4-65" value="&lt;b&gt;Is Valid&lt;/b&gt;&lt;div&gt;&lt;b&gt;?&lt;/b&gt;&lt;/div&gt;" style="rhombus;whiteSpace=wrap;html=1;fillColor=#76608a;strokeColor=#432D57;fontColor=#ffffff;" parent="n_0-4SOuCaoWq6f39xD4-1" vertex="1">
          <mxGeometry x="60" y="375" width="90" height="80" as="geometry" />
        </mxCell>
        <mxCell id="n_0-4SOuCaoWq6f39xD4-73" value="&lt;b&gt;NO&lt;/b&gt;" style="text;html=1;align=center;verticalAlign=middle;whiteSpace=wrap;rounded=0;" parent="n_0-4SOuCaoWq6f39xD4-1" vertex="1">
          <mxGeometry x="10" y="390" width="60" height="30" as="geometry" />
        </mxCell>
        <mxCell id="n_0-4SOuCaoWq6f39xD4-86" value="" style="edgeStyle=orthogonalEdgeStyle;rounded=0;orthogonalLoop=1;jettySize=auto;html=1;exitX=0.5;exitY=1;exitDx=0;exitDy=0;" parent="n_0-4SOuCaoWq6f39xD4-1" source="n_0-4SOuCaoWq6f39xD4-65" target="n_0-4SOuCaoWq6f39xD4-85" edge="1">
          <mxGeometry relative="1" as="geometry">
            <mxPoint x="175" y="510" as="targetPoint" />
            <mxPoint x="175" y="475" as="sourcePoint" />
          </mxGeometry>
        </mxCell>
        <mxCell id="n_0-4SOuCaoWq6f39xD4-85" value="" style="ellipse;whiteSpace=wrap;html=1;aspect=fixed;fillColor=#f8cecc;strokeColor=#b85450;" parent="n_0-4SOuCaoWq6f39xD4-1" vertex="1">
          <mxGeometry x="80" y="490" width="10" height="10" as="geometry" />
        </mxCell>
        <mxCell id="n_0-4SOuCaoWq6f39xD4-100" value="&lt;b&gt;Succeed&lt;/b&gt;&lt;div&gt;&lt;b&gt;?&lt;/b&gt;&lt;/div&gt;" style="rhombus;whiteSpace=wrap;html=1;fillColor=#76608a;strokeColor=#432D57;fontColor=#ffffff;" parent="n_0-4SOuCaoWq6f39xD4-1" vertex="1">
          <mxGeometry x="40" y="510" width="90" height="80" as="geometry" />
        </mxCell>
        <mxCell id="n_0-4SOuCaoWq6f39xD4-137" value="&lt;b&gt;End&lt;/b&gt;" style="ellipse;whiteSpace=wrap;html=1;fillColor=#fff2cc;strokeColor=#d6b656;" parent="n_0-4SOuCaoWq6f39xD4-1" vertex="1">
          <mxGeometry x="40" y="740" width="90" height="50" as="geometry" />
        </mxCell>
        <mxCell id="n_0-4SOuCaoWq6f39xD4-2" value="Admin" style="swimlane;whiteSpace=wrap;html=1;" parent="1" vertex="1">
          <mxGeometry x="290" y="20" width="200" height="810" as="geometry" />
        </mxCell>
        <mxCell id="n_0-4SOuCaoWq6f39xD4-18" style="edgeStyle=orthogonalEdgeStyle;rounded=0;orthogonalLoop=1;jettySize=auto;html=1;entryX=0.5;entryY=0;entryDx=0;entryDy=0;" parent="n_0-4SOuCaoWq6f39xD4-2" source="n_0-4SOuCaoWq6f39xD4-7" target="n_0-4SOuCaoWq6f39xD4-12" edge="1">
          <mxGeometry relative="1" as="geometry" />
        </mxCell>
        <mxCell id="n_0-4SOuCaoWq6f39xD4-7" value="&lt;b&gt;Registration&lt;/b&gt;" style="rounded=0;whiteSpace=wrap;html=1;fillColor=#d5e8d4;strokeColor=#82b366;" parent="n_0-4SOuCaoWq6f39xD4-2" vertex="1">
          <mxGeometry x="40" y="150" width="120" height="40" as="geometry" />
        </mxCell>
        <mxCell id="n_0-4SOuCaoWq6f39xD4-10" value="" style="endArrow=classic;html=1;rounded=0;entryX=0.413;entryY=0.035;entryDx=0;entryDy=0;entryPerimeter=0;" parent="n_0-4SOuCaoWq6f39xD4-2" target="n_0-4SOuCaoWq6f39xD4-7" edge="1">
          <mxGeometry width="50" height="50" relative="1" as="geometry">
            <mxPoint x="90" y="130" as="sourcePoint" />
            <mxPoint x="140" y="80" as="targetPoint" />
          </mxGeometry>
        </mxCell>
        <mxCell id="n_0-4SOuCaoWq6f39xD4-12" value="&lt;b&gt;Pincode&lt;/b&gt;" style="shape=parallelogram;perimeter=parallelogramPerimeter;whiteSpace=wrap;html=1;fixedSize=1;fillColor=#dae8fc;strokeColor=#6c8ebf;" parent="n_0-4SOuCaoWq6f39xD4-2" vertex="1">
          <mxGeometry x="36.25" y="220" width="127.5" height="40" as="geometry" />
        </mxCell>
        <mxCell id="n_0-4SOuCaoWq6f39xD4-69" style="edgeStyle=orthogonalEdgeStyle;rounded=0;orthogonalLoop=1;jettySize=auto;html=1;entryX=0.5;entryY=0;entryDx=0;entryDy=0;" parent="n_0-4SOuCaoWq6f39xD4-2" source="n_0-4SOuCaoWq6f39xD4-24" target="n_0-4SOuCaoWq6f39xD4-68" edge="1">
          <mxGeometry relative="1" as="geometry">
            <Array as="points">
              <mxPoint x="85" y="379" />
              <mxPoint x="85" y="379" />
            </Array>
          </mxGeometry>
        </mxCell>
        <mxCell id="n_0-4SOuCaoWq6f39xD4-24" value="&lt;b&gt;Profile informations&lt;/b&gt;" style="shape=parallelogram;perimeter=parallelogramPerimeter;whiteSpace=wrap;html=1;fixedSize=1;fillColor=#dae8fc;strokeColor=#6c8ebf;" parent="n_0-4SOuCaoWq6f39xD4-2" vertex="1">
          <mxGeometry x="10" y="330" width="180" height="40" as="geometry" />
        </mxCell>
        <mxCell id="n_0-4SOuCaoWq6f39xD4-68" value="" style="ellipse;whiteSpace=wrap;html=1;aspect=fixed;fillColor=#f8cecc;strokeColor=#b85450;" parent="n_0-4SOuCaoWq6f39xD4-2" vertex="1">
          <mxGeometry x="80" y="410" width="10" height="10" as="geometry" />
        </mxCell>
        <mxCell id="n_0-4SOuCaoWq6f39xD4-98" style="edgeStyle=orthogonalEdgeStyle;rounded=0;orthogonalLoop=1;jettySize=auto;html=1;entryX=0.5;entryY=0;entryDx=0;entryDy=0;" parent="n_0-4SOuCaoWq6f39xD4-2" source="n_0-4SOuCaoWq6f39xD4-74" target="n_0-4SOuCaoWq6f39xD4-96" edge="1">
          <mxGeometry relative="1" as="geometry" />
        </mxCell>
        <mxCell id="n_0-4SOuCaoWq6f39xD4-74" value="&lt;b&gt;Login&lt;/b&gt;" style="rounded=0;whiteSpace=wrap;html=1;fillColor=#d5e8d4;strokeColor=#82b366;" parent="n_0-4SOuCaoWq6f39xD4-2" vertex="1">
          <mxGeometry x="36.25" y="430" width="120" height="40" as="geometry" />
        </mxCell>
        <mxCell id="n_0-4SOuCaoWq6f39xD4-96" value="&lt;b&gt;Username/Email and&amp;nbsp;&lt;/b&gt;&lt;div&gt;&lt;b&gt;Password&lt;/b&gt;&lt;/div&gt;" style="shape=parallelogram;perimeter=parallelogramPerimeter;whiteSpace=wrap;html=1;fixedSize=1;fillColor=#dae8fc;strokeColor=#6c8ebf;" parent="n_0-4SOuCaoWq6f39xD4-2" vertex="1">
          <mxGeometry x="14.37" y="510" width="163.75" height="40" as="geometry" />
        </mxCell>
        <mxCell id="n_0-4SOuCaoWq6f39xD4-104" value="&lt;b&gt;Access System&lt;/b&gt;" style="rounded=0;whiteSpace=wrap;html=1;fillColor=#d5e8d4;strokeColor=#82b366;" parent="n_0-4SOuCaoWq6f39xD4-2" vertex="1">
          <mxGeometry x="31.25" y="570" width="125" height="30" as="geometry" />
        </mxCell>
        <mxCell id="n_0-4SOuCaoWq6f39xD4-106" value="&lt;b&gt;Forgot Password&lt;/b&gt;" style="rounded=0;whiteSpace=wrap;html=1;fillColor=#d5e8d4;strokeColor=#82b366;" parent="n_0-4SOuCaoWq6f39xD4-2" vertex="1">
          <mxGeometry x="31.869999999999997" y="640" width="128.75" height="30" as="geometry" />
        </mxCell>
        <mxCell id="n_0-4SOuCaoWq6f39xD4-128" value="" style="endArrow=classic;html=1;rounded=0;entryX=0.75;entryY=1;entryDx=0;entryDy=0;" parent="n_0-4SOuCaoWq6f39xD4-2" edge="1">
          <mxGeometry width="50" height="50" relative="1" as="geometry">
            <mxPoint x="100" y="620" as="sourcePoint" />
            <mxPoint x="99.5" y="600" as="targetPoint" />
          </mxGeometry>
        </mxCell>
        <mxCell id="n_0-4SOuCaoWq6f39xD4-133" value="" style="endArrow=classic;html=1;rounded=0;entryX=0.5;entryY=1;entryDx=0;entryDy=0;" parent="n_0-4SOuCaoWq6f39xD4-2" target="n_0-4SOuCaoWq6f39xD4-106" edge="1">
          <mxGeometry width="50" height="50" relative="1" as="geometry">
            <mxPoint x="100" y="690" as="sourcePoint" />
            <mxPoint x="150" y="640" as="targetPoint" />
          </mxGeometry>
        </mxCell>
        <mxCell id="n_0-4SOuCaoWq6f39xD4-138" style="edgeStyle=orthogonalEdgeStyle;rounded=0;orthogonalLoop=1;jettySize=auto;html=1;entryX=1;entryY=0.25;entryDx=0;entryDy=0;" parent="n_0-4SOuCaoWq6f39xD4-2" source="n_0-4SOuCaoWq6f39xD4-134" target="n_0-4SOuCaoWq6f39xD4-74" edge="1">
          <mxGeometry relative="1" as="geometry">
            <Array as="points">
              <mxPoint x="176" y="740" />
              <mxPoint x="176" y="440" />
            </Array>
          </mxGeometry>
        </mxCell>
        <mxCell id="n_0-4SOuCaoWq6f39xD4-134" value="&lt;b&gt;Recover&lt;/b&gt;" style="shape=parallelogram;perimeter=parallelogramPerimeter;whiteSpace=wrap;html=1;fixedSize=1;fillColor=#dae8fc;strokeColor=#6c8ebf;" parent="n_0-4SOuCaoWq6f39xD4-2" vertex="1">
          <mxGeometry x="21.25" y="710" width="127.5" height="40" as="geometry" />
        </mxCell>
        <mxCell id="n_0-4SOuCaoWq6f39xD4-51" value="&lt;b&gt;NO&lt;/b&gt;" style="text;html=1;align=center;verticalAlign=middle;whiteSpace=wrap;rounded=0;" parent="n_0-4SOuCaoWq6f39xD4-2" vertex="1">
          <mxGeometry y="280" width="60" height="30" as="geometry" />
        </mxCell>
        <mxCell id="n_0-4SOuCaoWq6f39xD4-3" value="Contestant" style="swimlane;whiteSpace=wrap;html=1;startSize=23;" parent="1" vertex="1">
          <mxGeometry x="490" y="20" width="200" height="810" as="geometry" />
        </mxCell>
        <mxCell id="n_0-4SOuCaoWq6f39xD4-19" value="" style="edgeStyle=orthogonalEdgeStyle;rounded=0;orthogonalLoop=1;jettySize=auto;html=1;" parent="n_0-4SOuCaoWq6f39xD4-3" source="n_0-4SOuCaoWq6f39xD4-8" target="n_0-4SOuCaoWq6f39xD4-14" edge="1">
          <mxGeometry relative="1" as="geometry" />
        </mxCell>
        <mxCell id="n_0-4SOuCaoWq6f39xD4-8" value="&lt;b&gt;Registration&lt;/b&gt;" style="rounded=0;whiteSpace=wrap;html=1;fillColor=#d5e8d4;strokeColor=#82b366;" parent="n_0-4SOuCaoWq6f39xD4-3" vertex="1">
          <mxGeometry x="40" y="150" width="120" height="40" as="geometry" />
        </mxCell>
        <mxCell id="n_0-4SOuCaoWq6f39xD4-14" value="&lt;b&gt;Profile informations&lt;/b&gt;" style="shape=parallelogram;perimeter=parallelogramPerimeter;whiteSpace=wrap;html=1;fixedSize=1;fillColor=#dae8fc;strokeColor=#6c8ebf;" parent="n_0-4SOuCaoWq6f39xD4-3" vertex="1">
          <mxGeometry x="10" y="210" width="180" height="40" as="geometry" />
        </mxCell>
        <mxCell id="n_0-4SOuCaoWq6f39xD4-99" style="edgeStyle=orthogonalEdgeStyle;rounded=0;orthogonalLoop=1;jettySize=auto;html=1;entryX=0.5;entryY=0;entryDx=0;entryDy=0;" parent="n_0-4SOuCaoWq6f39xD4-3" source="n_0-4SOuCaoWq6f39xD4-75" target="n_0-4SOuCaoWq6f39xD4-97" edge="1">
          <mxGeometry relative="1" as="geometry" />
        </mxCell>
        <mxCell id="n_0-4SOuCaoWq6f39xD4-75" value="&lt;b&gt;Login&lt;/b&gt;" style="rounded=0;whiteSpace=wrap;html=1;fillColor=#d5e8d4;strokeColor=#82b366;" parent="n_0-4SOuCaoWq6f39xD4-3" vertex="1">
          <mxGeometry x="40" y="430" width="120" height="40" as="geometry" />
        </mxCell>
        <mxCell id="n_0-4SOuCaoWq6f39xD4-81" value="" style="endArrow=none;html=1;rounded=0;fillColor=#f8cecc;strokeColor=#b85450;" parent="n_0-4SOuCaoWq6f39xD4-3" edge="1">
          <mxGeometry width="50" height="50" relative="1" as="geometry">
            <mxPoint x="-80" y="490" as="sourcePoint" />
            <mxPoint x="130" y="490" as="targetPoint" />
          </mxGeometry>
        </mxCell>
        <mxCell id="n_0-4SOuCaoWq6f39xD4-82" value="" style="endArrow=classic;html=1;rounded=0;entryX=0.75;entryY=1;entryDx=0;entryDy=0;fillColor=#f8cecc;strokeColor=#b85450;" parent="n_0-4SOuCaoWq6f39xD4-3" target="n_0-4SOuCaoWq6f39xD4-75" edge="1">
          <mxGeometry width="50" height="50" relative="1" as="geometry">
            <mxPoint x="130" y="490" as="sourcePoint" />
            <mxPoint x="180" y="490" as="targetPoint" />
          </mxGeometry>
        </mxCell>
        <mxCell id="n_0-4SOuCaoWq6f39xD4-97" value="&lt;b&gt;Username/Email and&amp;nbsp;&lt;/b&gt;&lt;div&gt;&lt;b&gt;Password&lt;/b&gt;&lt;/div&gt;" style="shape=parallelogram;perimeter=parallelogramPerimeter;whiteSpace=wrap;html=1;fixedSize=1;fillColor=#dae8fc;strokeColor=#6c8ebf;" parent="n_0-4SOuCaoWq6f39xD4-3" vertex="1">
          <mxGeometry x="10" y="510" width="180" height="40" as="geometry" />
        </mxCell>
        <mxCell id="n_0-4SOuCaoWq6f39xD4-105" value="&lt;b&gt;Access System&lt;/b&gt;" style="rounded=0;whiteSpace=wrap;html=1;fillColor=#d5e8d4;strokeColor=#82b366;" parent="n_0-4SOuCaoWq6f39xD4-3" vertex="1">
          <mxGeometry x="30" y="570" width="125" height="30" as="geometry" />
        </mxCell>
        <mxCell id="n_0-4SOuCaoWq6f39xD4-120" value="&lt;b&gt;Forgot Password&lt;/b&gt;" style="rounded=0;whiteSpace=wrap;html=1;fillColor=#d5e8d4;strokeColor=#82b366;" parent="n_0-4SOuCaoWq6f39xD4-3" vertex="1">
          <mxGeometry x="31.25" y="640" width="128.75" height="30" as="geometry" />
        </mxCell>
        <mxCell id="n_0-4SOuCaoWq6f39xD4-135" value="&lt;b&gt;Recover&lt;/b&gt;" style="shape=parallelogram;perimeter=parallelogramPerimeter;whiteSpace=wrap;html=1;fixedSize=1;fillColor=#dae8fc;strokeColor=#6c8ebf;" parent="n_0-4SOuCaoWq6f39xD4-3" vertex="1">
          <mxGeometry x="36.25" y="710" width="127.5" height="40" as="geometry" />
        </mxCell>
        <mxCell id="n_0-4SOuCaoWq6f39xD4-139" style="edgeStyle=orthogonalEdgeStyle;rounded=0;orthogonalLoop=1;jettySize=auto;html=1;" parent="n_0-4SOuCaoWq6f39xD4-3" target="n_0-4SOuCaoWq6f39xD4-75" edge="1">
          <mxGeometry relative="1" as="geometry">
            <mxPoint x="148" y="740" as="sourcePoint" />
            <mxPoint x="170" y="440" as="targetPoint" />
            <Array as="points">
              <mxPoint x="190" y="740" />
              <mxPoint x="190" y="440" />
            </Array>
          </mxGeometry>
        </mxCell>
        <mxCell id="n_0-4SOuCaoWq6f39xD4-9" style="edgeStyle=orthogonalEdgeStyle;rounded=0;orthogonalLoop=1;jettySize=auto;html=1;entryX=0.5;entryY=0;entryDx=0;entryDy=0;" parent="1" source="n_0-4SOuCaoWq6f39xD4-5" target="n_0-4SOuCaoWq6f39xD4-8" edge="1">
          <mxGeometry relative="1" as="geometry" />
        </mxCell>
        <mxCell id="n_0-4SOuCaoWq6f39xD4-144" value="&lt;b&gt;NO&lt;/b&gt;" style="edgeLabel;html=1;align=center;verticalAlign=middle;resizable=0;points=[];" parent="n_0-4SOuCaoWq6f39xD4-9" vertex="1" connectable="0">
          <mxGeometry x="-0.8389" y="3" relative="1" as="geometry">
            <mxPoint as="offset" />
          </mxGeometry>
        </mxCell>
        <mxCell id="n_0-4SOuCaoWq6f39xD4-15" style="edgeStyle=orthogonalEdgeStyle;rounded=0;orthogonalLoop=1;jettySize=auto;html=1;exitX=0;exitY=0.5;exitDx=0;exitDy=0;entryX=0.75;entryY=1;entryDx=0;entryDy=0;" parent="1" source="n_0-4SOuCaoWq6f39xD4-11" target="n_0-4SOuCaoWq6f39xD4-14" edge="1">
          <mxGeometry relative="1" as="geometry" />
        </mxCell>
        <mxCell id="n_0-4SOuCaoWq6f39xD4-90" value="&lt;b&gt;NO&lt;/b&gt;" style="edgeLabel;html=1;align=center;verticalAlign=middle;resizable=0;points=[];" parent="n_0-4SOuCaoWq6f39xD4-15" vertex="1" connectable="0">
          <mxGeometry x="-0.6774" y="-3" relative="1" as="geometry">
            <mxPoint x="2" y="-3" as="offset" />
          </mxGeometry>
        </mxCell>
        <mxCell id="n_0-4SOuCaoWq6f39xD4-16" style="edgeStyle=orthogonalEdgeStyle;rounded=0;orthogonalLoop=1;jettySize=auto;html=1;" parent="1" source="n_0-4SOuCaoWq6f39xD4-11" target="n_0-4SOuCaoWq6f39xD4-12" edge="1">
          <mxGeometry relative="1" as="geometry" />
        </mxCell>
        <mxCell id="n_0-4SOuCaoWq6f39xD4-23" style="edgeStyle=orthogonalEdgeStyle;rounded=0;orthogonalLoop=1;jettySize=auto;html=1;entryX=1;entryY=0.5;entryDx=0;entryDy=0;" parent="1" source="n_0-4SOuCaoWq6f39xD4-12" target="n_0-4SOuCaoWq6f39xD4-22" edge="1">
          <mxGeometry relative="1" as="geometry">
            <Array as="points">
              <mxPoint x="390" y="340" />
            </Array>
          </mxGeometry>
        </mxCell>
        <mxCell id="n_0-4SOuCaoWq6f39xD4-25" style="edgeStyle=orthogonalEdgeStyle;rounded=0;orthogonalLoop=1;jettySize=auto;html=1;exitX=0.5;exitY=1;exitDx=0;exitDy=0;entryX=0;entryY=0.5;entryDx=0;entryDy=0;" parent="1" source="n_0-4SOuCaoWq6f39xD4-22" target="n_0-4SOuCaoWq6f39xD4-24" edge="1">
          <mxGeometry relative="1" as="geometry">
            <Array as="points">
              <mxPoint x="185" y="390" />
              <mxPoint x="265" y="390" />
              <mxPoint x="265" y="370" />
            </Array>
          </mxGeometry>
        </mxCell>
        <mxCell id="n_0-4SOuCaoWq6f39xD4-92" value="&lt;b&gt;YES&lt;/b&gt;" style="edgeLabel;html=1;align=center;verticalAlign=middle;resizable=0;points=[];" parent="n_0-4SOuCaoWq6f39xD4-25" vertex="1" connectable="0">
          <mxGeometry x="-0.3729" relative="1" as="geometry">
            <mxPoint as="offset" />
          </mxGeometry>
        </mxCell>
        <mxCell id="n_0-4SOuCaoWq6f39xD4-70" style="edgeStyle=orthogonalEdgeStyle;rounded=0;orthogonalLoop=1;jettySize=auto;html=1;entryX=1;entryY=0.5;entryDx=0;entryDy=0;" parent="1" source="n_0-4SOuCaoWq6f39xD4-14" target="n_0-4SOuCaoWq6f39xD4-68" edge="1">
          <mxGeometry relative="1" as="geometry">
            <Array as="points">
              <mxPoint x="590" y="435" />
            </Array>
          </mxGeometry>
        </mxCell>
        <mxCell id="n_0-4SOuCaoWq6f39xD4-71" style="edgeStyle=orthogonalEdgeStyle;rounded=0;orthogonalLoop=1;jettySize=auto;html=1;entryX=1;entryY=0.5;entryDx=0;entryDy=0;" parent="1" source="n_0-4SOuCaoWq6f39xD4-68" target="n_0-4SOuCaoWq6f39xD4-65" edge="1">
          <mxGeometry relative="1" as="geometry" />
        </mxCell>
        <mxCell id="n_0-4SOuCaoWq6f39xD4-94" style="edgeStyle=orthogonalEdgeStyle;rounded=0;orthogonalLoop=1;jettySize=auto;html=1;entryX=0.75;entryY=1;entryDx=0;entryDy=0;fillColor=#f8cecc;strokeColor=#b85450;" parent="1" source="n_0-4SOuCaoWq6f39xD4-85" target="n_0-4SOuCaoWq6f39xD4-74" edge="1">
          <mxGeometry relative="1" as="geometry">
            <Array as="points">
              <mxPoint x="416" y="510" />
            </Array>
          </mxGeometry>
        </mxCell>
        <mxCell id="n_0-4SOuCaoWq6f39xD4-101" style="edgeStyle=orthogonalEdgeStyle;rounded=0;orthogonalLoop=1;jettySize=auto;html=1;entryX=1;entryY=0.5;entryDx=0;entryDy=0;" parent="1" source="n_0-4SOuCaoWq6f39xD4-96" target="n_0-4SOuCaoWq6f39xD4-100" edge="1">
          <mxGeometry relative="1" as="geometry" />
        </mxCell>
        <mxCell id="n_0-4SOuCaoWq6f39xD4-122" style="edgeStyle=orthogonalEdgeStyle;rounded=0;orthogonalLoop=1;jettySize=auto;html=1;entryX=0.694;entryY=0.98;entryDx=0;entryDy=0;entryPerimeter=0;" parent="1" source="n_0-4SOuCaoWq6f39xD4-100" target="n_0-4SOuCaoWq6f39xD4-105" edge="1">
          <mxGeometry relative="1" as="geometry">
            <Array as="points">
              <mxPoint x="110" y="570" />
              <mxPoint x="110" y="640" />
              <mxPoint x="607" y="640" />
            </Array>
          </mxGeometry>
        </mxCell>
        <mxCell id="n_0-4SOuCaoWq6f39xD4-124" value="&lt;b&gt;YES&lt;/b&gt;" style="edgeLabel;html=1;align=center;verticalAlign=middle;resizable=0;points=[];" parent="n_0-4SOuCaoWq6f39xD4-122" vertex="1" connectable="0">
          <mxGeometry x="-0.2362" y="3" relative="1" as="geometry">
            <mxPoint as="offset" />
          </mxGeometry>
        </mxCell>
        <mxCell id="n_0-4SOuCaoWq6f39xD4-123" style="edgeStyle=orthogonalEdgeStyle;rounded=0;orthogonalLoop=1;jettySize=auto;html=1;exitX=0.5;exitY=1;exitDx=0;exitDy=0;entryX=0.75;entryY=1;entryDx=0;entryDy=0;" parent="1" source="n_0-4SOuCaoWq6f39xD4-100" target="n_0-4SOuCaoWq6f39xD4-120" edge="1">
          <mxGeometry relative="1" as="geometry">
            <Array as="points">
              <mxPoint x="175" y="710" />
              <mxPoint x="618" y="710" />
            </Array>
          </mxGeometry>
        </mxCell>
        <mxCell id="n_0-4SOuCaoWq6f39xD4-125" value="&lt;b&gt;NO&lt;/b&gt;" style="edgeLabel;html=1;align=center;verticalAlign=middle;resizable=0;points=[];" parent="n_0-4SOuCaoWq6f39xD4-123" vertex="1" connectable="0">
          <mxGeometry x="0.1535" y="-3" relative="1" as="geometry">
            <mxPoint x="-160" y="-3" as="offset" />
          </mxGeometry>
        </mxCell>
        <mxCell id="n_0-4SOuCaoWq6f39xD4-140" style="edgeStyle=orthogonalEdgeStyle;rounded=0;orthogonalLoop=1;jettySize=auto;html=1;entryX=1;entryY=0.5;entryDx=0;entryDy=0;" parent="1" source="n_0-4SOuCaoWq6f39xD4-104" target="n_0-4SOuCaoWq6f39xD4-137" edge="1">
          <mxGeometry relative="1" as="geometry">
            <Array as="points">
              <mxPoint x="280" y="605" />
              <mxPoint x="280" y="785" />
            </Array>
          </mxGeometry>
        </mxCell>
        <mxCell id="n_0-4SOuCaoWq6f39xD4-141" style="edgeStyle=orthogonalEdgeStyle;rounded=0;orthogonalLoop=1;jettySize=auto;html=1;exitX=0;exitY=0.5;exitDx=0;exitDy=0;entryX=0.5;entryY=1;entryDx=0;entryDy=0;" parent="1" source="n_0-4SOuCaoWq6f39xD4-105" target="n_0-4SOuCaoWq6f39xD4-137" edge="1">
          <mxGeometry relative="1" as="geometry">
            <Array as="points">
              <mxPoint x="510" y="605" />
              <mxPoint x="510" y="820" />
              <mxPoint x="175" y="820" />
            </Array>
          </mxGeometry>
        </mxCell>
      </root>
    </mxGraphModel>
  </diagram>
</mxfile>
